<svg xmlns="http://www.w3.org/2000/svg" width="800" height="800">
    <style>.a{fill:#fff;}</style>
    <title> Calendar</title>
    <circle r="400" cy="400" cx="400" fill="#FF745F"/>
    <circle cx="555.6" cy="334.2" r="12.3" class="a"/>
    <circle cx="476.5" cy="334.2" r="12.3" class="a"/>
    <circle cx="397.5" cy="334.2" r="12.3" class="a"/>
    <circle cx="318.4" cy="334.2" r="12.3" class="a"/>
    <circle cx="239.4" cy="334.2" r="12.3" class="a"/>
    <circle cx="555.6" cy="413.2" r="12.3" class="a"/>
    <circle cx="476.5" cy="413.2" r="12.3" class="a"/>
    <circle cx="397.5" cy="413.2" r="12.3" class="a"/>
    <circle cx="239.4" cy="413.2" r="12.3" class="a"/>
    <circle cx="555.6" cy="492.3" r="12.3" class="a"/>
    <circle cx="476.5" cy="492.3" r="12.3" class="a"/>
    <circle cx="397.5" cy="492.3" r="12.3" class="a"/>
    <circle cx="318.4" cy="492.3" r="12.3" class="a"/>
    <circle cx="239.4" cy="492.3" r="12.3" class="a"/>
    <path d="m355.6 365.5l-74.3 0c-5.8 0-10.6 4.7-10.6 10.6l0 74.3c0 5.8 4.7 10.6 10.6 10.6l74.3 0c5.8 0 10.6-4.7 10.6-10.6l0-74.3c0-5.8-4.7-10.6-10.6-10.6zm-10.6 74.3l-53.1 0 0-53.1 53.1 0 0 53.1 0 0z" class="a"/>
    <path d="m620.2 224l-77.7 0 0-13.6c0-6.5-5.3-11.8-11.8-11.8 -6.5 0-11.8 5.3-11.8 11.8l0 13.6 -64 0 0-13.6c0-6.5-5.3-11.8-11.8-11.8 -6.5 0-11.8 5.3-11.8 11.8l0 13.6 -64 0 0-13.6c0-6.5-5.3-11.8-11.8-11.8s-11.8 5.3-11.8 11.8l0 13.6 -64 0 0-13.6c0-6.5-5.3-11.8-11.8-11.8s-11.8 5.3-11.8 11.8l0 13.6 -77.7 0c-19.4 0-35.3 15.8-35.3 35.3l0 288.6c0 19.4 15.8 35.3 35.3 35.3l441.5 0c19.4 0 35.3-15.8 35.3-35.3l0-288.6c0-19.4-15.8-35.3-35.3-35.3zm0 335.6l-441.5 0c-6.5 0-11.8-5.3-11.8-11.8l0-288.6c0-6.5 5.3-11.8 11.8-11.8l77.7 0 0 13.6c0 6.5 5.3 11.8 11.8 11.8 6.5 0 11.8-5.3 11.8-11.8l0-13.6 64 0 0 13.6c0 6.5 5.3 11.8 11.8 11.8s11.8-5.3 11.8-11.8l0-13.6 64 0 0 13.6c0 6.5 5.3 11.8 11.8 11.8 6.5 0 11.8-5.3 11.8-11.8l0-13.6 64 0 0 13.6c0 6.5 5.3 11.8 11.8 11.8 6.5 0 11.8-5.3 11.8-11.8l0-13.6 77.7 0c6.5 0 11.8 5.3 11.8 11.8l0 288.6 0 0c0 6.5-5.3 11.8-11.8 11.8z" class="a"/>
</svg>
