<svg xmlns="http://www.w3.org/2000/svg" width="800" height="800">
    <title>Chat</title>
    <circle cx="400" cy="400" r="400" fill="#FF745F"/>
    <path d="m524.3 204.8l-343.5 0c-15.9 0-28.8 12.9-28.8 28.8l0 206.1c0 15.9 12.9 28.8 28.8 28.8l22.3 0 0 76.7c0 4.9 2.9 9.3 7.5 11.2 1.5 0.6 3.1 0.9 4.6 0.9 3.1 0 6.2-1.2 8.5-3.5l85.3-85.2 17.1 0c6.7 0 12.1-5.4 12.1-12.1 0-6.7-5.4-12.1-12.1-12.1 0 0-22.7 0-22.9 0 -2.8 0.2-5.6 1.3-7.7 3.5l-68.2 68.2c0 0 0-60.4-0.1-60.7 -0.5-6.2-5.7-11-12-11l-34.3 0c-2.6 0-4.7-2.1-4.7-4.7l0-206.1c0-2.6 2.1-4.7 4.7-4.7l343.5 0c2.6 0 4.7 2.1 4.7 4.7l0 79.1c0 6.7 5.4 12.1 12.1 12.1s12.1-5.4 12.1-12.1l0-79.1c0-15.9-12.9-28.8-28.8-28.8z" fill="white"/>
    <path d="m635.2 352.5l-240.4 0c-15.9 0-28.8 12.9-28.8 28.8l0 140.6c0 15.9 12.9 28.8 28.8 28.8l150.5 0 61 61c2.3 2.3 5.4 3.5 8.5 3.5 1.6 0 3.1-0.3 4.6-0.9 4.5-1.9 7.5-6.3 7.5-11.2l0-52.4 8.3 0c15.9 0 28.8-12.9 28.8-28.8l0-140.6c0-15.9-12.9-28.8-28.8-28.8zm4.7 169.4c0 2.6-2.1 4.7-4.7 4.7l-20.4 0c-6.4 0-11.6 4.9-12 11.1 0 0.3-0.1 36.3-0.1 36.3l-43.9-43.9c0 0-0.1-0.1-0.1-0.1 -0.2-0.2-0.3-0.3-0.5-0.4 -2.1-1.9-4.9-3-8-3l-155.5 0c-2.6 0-4.7-2.1-4.7-4.7l0-140.6c0-2.6 2.1-4.7 4.7-4.7l240.4 0c2.6 0 4.7 2.1 4.7 4.7l0 140.6z" fill="white"/>
    <path d="m515 439.5c-6.7 0-12.1 5.4-12.1 12.1 0 6.7 5.4 12.1 12.1 12.1 6.7 0 12.1-5.4 12.1-12.1 0-6.7-5.4-12.1-12.1-12.1z" fill="white"/>
    <path d="m462.5 284.6c0 0-219.8 0-219.8 0 -6.7 0-12.1 5.4-12.1 12.1s5.4 12.1 12.1 12.1l219.8 0c6.7 0 12.1-5.4 12.1-12.1s-5.4-12.1-12.1-12.1z" fill="white"/>
    <path d="m326.1 364.5l-83.4 0c-6.7 0-12.1 5.4-12.1 12.1 0 6.7 5.4 12.1 12.1 12.1l83.4 0c6.7 0 12.1-5.4 12.1-12.1s-5.4-12.1-12.1-12.1z" fill="white"/>
    <path d="m458.8 439.5c-6.7 0-12.1 5.4-12.1 12.1 0 6.7 5.4 12.1 12.1 12.1 6.7 0 12.1-5.4 12.1-12.1 0-6.7-5.4-12.1-12.1-12.1z" fill="white"/>
    <path d="m571.1 439.5c-6.7 0-12.1 5.4-12.1 12.1 0 6.7 5.4 12.1 12.1 12.1 6.7 0 12.1-5.4 12.1-12.1 0-6.7-5.4-12.1-12.1-12.1z" fill="white"/>
</svg>
