<svg xmlns="http://www.w3.org/2000/svg" width="512" height="512">
    <title>Codepen</title>
    <polygon points="164 240.6 164 271.1 186.2 255.5" fill="#FF745F"/>
    <polygon points="300.4 241.8 336.2 217.7 266.6 169.3 266.8 217.4" fill="#FF745F"/>
    <polygon points="242 216.3 242 169.3 173.3 217.4 207.7 240.4" fill="#FF745F"/>
    <path d="m374 0l-236 0c-76.2 0-138 61.8-138 138l0 236c0 76.2 61.8 138 138 138l236 0c76.2 0 138-61.8 138-138l0-236c0-76.2-61.8-138-138-138zm-3 291.5c0 6.2-3.3 12.1-8.5 15.5l-97.1 64.1c-6.2 4.1-14.3 4.1-20.5 0l-95.3-62.9c-5.2-3.4-8.5-9.3-8.5-15.5l0-70.2c0-6.1 3.2-11.8 8.2-15.3l93.6-65.2c6.3-4.4 14.7-4.5 21-0.3l98.7 65.3c5.2 3.4 8.5 9.3 8.5 15.5l0 69z" fill="#FF745F"/>
    <polygon points="267 293.4 267 340.9 336.1 294.7 300.3 271.2" fill="#FF745F"/>
    <polygon points="243 293.5 208.2 270.2 173.6 294.4 243 340.8" fill="#FF745F"/>
    <polygon points="346 271.9 346 240.6 322.4 256.4" fill="#FF745F"/>
    <polygon points="252.1 239.4 229.6 255.1 255.1 272.2 278.3 256.6" fill="#FF745F"/>
</svg>
