<svg xmlns="http://www.w3.org/2000/svg" width="800" height="800">
    <title>Code</title>
    <circle cx="400" cy="400" r="400" fill="#FF745F"/>
    <path d="m622.8 220.1l-435.6 0c-15 0-27.2 12.2-27.2 27.2l0 299.4c0 15 12.2 27.2 27.2 27.2l435.6 0c15 0 27.2-12.2 27.2-27.2l0-299.4c0-15-12.2-27.2-27.2-27.2zm-435.6 20l435.6 0c4 0 7.2 3.2 7.2 7.2l0 30.8 -450 0 0-30.8c0-4 3.2-7.2 7.2-7.2zm435.6 313.8l-435.6 0c-4 0-7.2-3.2-7.2-7.2l0-248.6 450 0 0 248.6c0 4-3.2 7.2-7.2 7.2z" fill="white"/>
    <path d="m348.1 362.4c-3.9-3.9-10.2-3.9-14.1 0l-45.2 45.2c-1.9 1.9-2.9 4.4-2.9 7.1 0 2.7 1.1 5.2 2.9 7.1l45.2 45.2c2 2 4.5 2.9 7.1 2.9s5.1-1 7.1-2.9c3.9-3.9 3.9-10.2 0-14.1l-38.1-38.1 38.1-38.1c3.9-3.9 3.9-10.2 0-14.1z" fill="white"/>
    <path d="m468.9 362.4c-3.9-3.9-10.2-3.9-14.1 0 -3.9 3.9-3.9 10.2 0 14.1l38.1 38.1 -38.1 38.1c-3.9 3.9-3.9 10.2 0 14.1 2 2 4.5 2.9 7.1 2.9 2.6 0 5.1-1 7.1-2.9l45.2-45.2c1.9-1.9 2.9-4.4 2.9-7.1 0-2.7-1.1-5.2-2.9-7.1l-45.2-45.2z" fill="white"/>
    <path d="m429.6 360.6c-4.9-2.5-10.9-0.5-13.4 4.4l-47.3 93.6c-2.5 4.9-0.5 10.9 4.4 13.4 1.4 0.7 3 1.1 4.5 1.1 3.7 0 7.2-2 8.9-5.5l47.3-93.6c2.5-4.9 0.5-10.9-4.4-13.4z" fill="white"/>
</svg>
