<svg xmlns="http://www.w3.org/2000/svg" width="800" height="800">
    <title>Email</title>
    <circle cx="400" cy="400" r="400" fill="#FF745F"/>
    <path d="m657.6 317.6c0-0.8-0.2-1.9-0.5-2.6 -0.8-2.9-2.5-5.5-5.2-7.3l-73.3-50.9 0-54.6c0-7.2-5.9-13.1-13.1-13.1l-84.3 0 -71.7-49.9c-4.5-3.1-10.4-3.1-14.9 0l-72.2 49.9 -83.9 0c-7.2 0-13.1 5.9-13.1 13.1l0 54 -73.6 50.9c-3.6 2.5-5.6 6.5-5.6 10.6 0 0.1 0 0.2 0 0.2l0.4 284.2c0 3.5 1.4 6.8 3.9 9.3 2.5 2.5 5.8 3.8 9.3 3.8 0 0 0 0 0 0l485.4-0.7c7.2 0 13.1-5.9 13.1-13.1l-0.4-283.8zm-78.9-28.9l41.9 29.1 -41.9 29.1 0-58.2zm-176.7-122.8l33.3 23.2 -66.8 0 33.5-23.2zm-150.5 49.4l300.9 0 0 149.9 -101 70.2 -41.2-32c-0.1 0-0.1-0.1-0.2-0.1 -4.6-3.5-11.1-3.6-15.9 0.1l-41.5 32.2 -101.1-69.9 0-150.5zm-26.2 72.7l0 59.6 -43.1-29.8 43.1-29.8zm-53.1 54.9l158.7 109.7 -158.3 122.8 -0.3-232.5zm25.6 246l204.3-158.5 203.6 157.9 -407.9 0.6zm275.3-136.6l158.3-110 0.3 233.1 -158.6-123z" fill="white"/>
    <path d="m490.8 267.7l-177.5 0c-7.2 0-13.1 5.9-13.1 13.1s5.9 13.1 13.1 13.1l177.5 0c7.2 0 13.1-5.9 13.1-13.1s-5.9-13.1-13.1-13.1z" fill="white"/>
    <path d="m490.8 335.9l-177.5 0c-7.2 0-13.1 5.9-13.1 13.1 0 7.2 5.9 13.1 13.1 13.1l177.5 0c7.2 0 13.1-5.9 13.1-13.1 0-7.2-5.9-13.1-13.1-13.1z" fill="white"/>
</svg>
