<svg xmlns="http://www.w3.org/2000/svg" width="800" height="800">
    <title>Fodmap</title>
    <circle cx="400" cy="400" r="400" fill="#FF745F"/>
    <path d="m544.2 457.9l0-292.7 -0.1 0c0.3-2.6-0.2-5.3-1.7-7.7 -3.4-5.5-10.6-7.2-16.2-3.8 -47.9 29.6-76.5 80.9-76.5 137.2 0 0 0 0 0 0l0 153.8c0 13.5 10.8 24.5 24.2 24.9l0 159c0 19.4 15.8 35.1 35.1 35.1 19.4 0 35.1-15.8 35.1-35.1l0-170.7c0 0 0 0 0-0.1zm-69.5-11.7c-0.8 0-1.4-0.6-1.4-1.4l0-153.8c0 0 0 0 0 0 0-40.6 17.4-78.2 47.5-104.1l0 259.4 -46 0zm46 182.5c0 6.4-5.2 11.6-11.6 11.6 -6.4 0-11.6-5.2-11.6-11.6l0-159 23.3 0 0 159z" fill="white"/>
    <path d="m365.8 152c-6.5 0-11.7 5.3-11.7 11.7l0 133.4 -29.9 0 0-133.4c0-6.5-5.3-11.7-11.7-11.7 -6.5 0-11.7 5.3-11.7 11.7l0 133.4 -29.9 0 0-133.4c0-6.5-5.3-11.7-11.7-11.7s-11.7 5.3-11.7 11.7l0 170c0 19.1 15.6 34.7 34.7 34.7l2.1 0 -16.5 247.7c-0.8 12.4 3.6 24.6 12 33.7 8.5 9 20.4 14.2 32.8 14.2 12.4 0 24.3-5.2 32.8-14.2 8.5-9 12.8-21.3 12-33.7l-16.5-247.7 2.1 0c19.1 0 34.7-15.6 34.7-34.7l0-170c0-6.5-5.3-11.7-11.7-11.7zm-37.8 481.7c-4.1 4.4-9.7 6.8-15.7 6.8s-11.6-2.4-15.7-6.8c-4.1-4.4-6.1-10.1-5.7-16.1l16.6-249.2 9.6 0 16.6 249.2c0.4 6-1.6 11.7-5.7 16.1zm26-300c0 6.2-5 11.2-11.2 11.2l-46.6 0c0 0 0 0 0 0l-14.2 0c-6.2 0-11.2-5-11.2-11.2l0-13.1 83.3 0 0 13.1z" fill="white"/>
</svg>
