<svg xmlns="http://www.w3.org/2000/svg" width="800" height="800">
    <title>Form</title>
    <circle cx="400" cy="400" r="400" fill="#FF745F"/>
    <path  fill="white" d="m666.4 206.8c-20.8-20.8-54.7-20.8-75.5 0l-197.1 197.1 -69.9-69.9c-20.8-20.8-54.7-20.8-75.5 0 -20.8 20.8-20.8 54.7 0 75.5l120.3 120.3c6.9 6.9 16 10.3 25 10.3 9.1 0 18.1-3.4 25-10.3l247.6-247.6c20.8-20.8 20.8-54.7 0-75.5l0.1 0.1zm-19.3 56.1l-247.6 247.6c-3.1 3.1-8.2 3.1-11.3 0l-120.3-120.3c-10.1-10.1-10.1-26.6 0-36.8 5.1-5.1 11.7-7.6 18.4-7.6s13.3 2.5 18.4 7.6l71.9 71.9c4.6 4.6 10.8 7.2 17.3 7.2 6.6 0 12.7-2.6 17.3-7.2l199.1-199.1c10.1-10.1 26.6-10.1 36.8 0 10.1 10.1 10.1 26.6 0 36.8l0-0.1z" class="a"/>
    <path  fill="white" d="m619.7 384.8c-0.5-7.5-7.1-13.2-14.6-12.7 -7.5 0.5-13.2 7.1-12.7 14.6 0.3 4.7 0.5 9.4 0.5 14.2 0 109.1-88.7 197.8-197.8 197.8 -109.1 0-197.8-88.7-197.8-197.8s88.7-197.8 197.8-197.8c43.2 0 84.2 13.7 118.6 39.5 6 4.5 14.6 3.3 19.2-2.7 4.5-6 3.3-14.6-2.7-19.2 -39.2-29.4-85.9-45-135.1-45 -124.1 0-225.1 101-225.1 225.1s101 225.1 225.1 225.1 225.1-101 225.1-225.1c0-5.4-0.2-10.8-0.6-16.2l0.1 0.2z" class="a"/>
</svg>
