<svg xmlns="http://www.w3.org/2000/svg" width="800" height="800">
    <title>Graph</title>
    <circle cx="400" cy="400" r="400" fill="#FF745F"/>
    <path d="m647.9 592.6l-487.8 0c-6.7 0-12.1 5.4-12.1 12.1 0 6.7 5.4 12.1 12.1 12.1l487.8 0c6.7 0 12.1-5.4 12.1-12.1 0-6.7-5.4-12.1-12.1-12.1z" fill="white"/>
    <path d="m616.4 224.3l-84.9 0c-6.7 0-12.1 5.4-12.1 12.1l0 82.2 -60.8 0 0-139.3c0-6.7-5.4-12.1-12.1-12.1l-84.9 0c-6.7 0-12.1 5.4-12.1 12.1l0 228.9 -60.8 0 0-102.8c0-6.7-5.4-12.1-12.1-12.1l-84.9 0c-6.7 0-12.1 5.4-12.1 12.1l0 231.6c0 6.7 5.4 12.1 12.1 12.1l84.9 0 84.9 0 85 0 84.9 0 84.9 0c6.7 0 12.1-5.4 12.1-12.1l0-300.5c0-6.7-5.4-12.1-12.1-12.1zm-351.9 300.5l-60.8 0 0-207.4 60.8 0 0 207.4zm85 0l-60.8 0 0-92.5 60.8 0 0 92.5zm84.9-194.1l0 194.1 -60.8 0 0-333.4 60.8 0 0 139.3zm85 194.1l-60.8 0 0-182 60.8 0 0 182zm84.9 0l-60.8 0 0-194.1 0-82.2 60.8 0 0 276.3 0 0z" fill="white"/>
</svg>
