<svg xmlns="http://www.w3.org/2000/svg" width="800" height="800">
    <title>Boilerplate</title>
    <circle cx="400" cy="400" r="400" fill="#FF745F"/>
    <path d="m461.4 253.4c-9.9-11.1-25.4-17.5-42.4-17.5 -30.4 0-57.7 20.8-60.7 46.4 -1.3 11.7 2.3 23 10.2 32 9.8 10.9 25.1 17.2 42 17.2 31.2 0 58-20.4 61-46.3 1.4-11.5-2.3-22.7-10.2-31.7zm-14.2 28.8c-1.5 13.3-18.3 24.6-36.6 24.6 -9.8 0-18.7-3.4-23.7-9 -3.3-3.7-4.7-8-4.2-12.8 1.5-13.1 18.5-24.6 36.2-24.6 9.9 0 18.9 3.5 24.1 9.3 2.3 2.6 4.8 6.8 4.2 12.5z" fill="white"/>
    <path d="m449.8 515.5c-3.1-2.1-10.3-6.9-4.5-40.4 0.1-0.7 0.7-3.4 1.6-7.6 2.1-9.6 5.9-27.3 10.1-47.2 0 0 0-0.1 0-0.1 4.3-21.4 0.9-40.2-9.7-54.2 -9.6-12.7-24.8-20.4-42.8-21.9 -26.6-2.1-54.4 13.7-62.9 29.4 -3.9 6.9-2.1 12.5-0.6 15.3 1.8 3.4 4.5 5.3 6.5 6.7 3 2.1 10.1 7.2 3.4 40.6 -0.6 3.1-10 50.7-11.2 57.5 0 0 0 0.1 0 0.1 -3.7 21.5 0 40.4 11.2 54 18 21.9 45.5 20.8 46.5 20.8 25.6 0 51.1-15.9 58.9-31.1 3.8-7 1.7-12.6 0.2-15.3 -1.9-3.3-4.7-5.2-6.7-6.5zm-16.8-100.1c-4.1 19.7-8 37.5-10 47 -1.4 6.5-1.7 7.8-1.8 8.3 0 0 0 0.1 0 0.1 -6.2 35.9 0.1 51.6 9 60.3 -2.4 2.2-5.8 4.5-9.9 6.7 -8.1 4.2-17.2 6.4-24.8 6 -11.1-0.6-19.9-4.6-25.4-11.5 -6.5-8.1-8.6-20-6.1-34.4 1.3-7.3 10.7-54.9 11.1-56.8 0 0 0-0.1 0-0.1 7.2-35.7 1.3-51.5-7.4-60.6 2.5-2.1 5.9-4.4 10.1-6.4 8.3-4 17.3-5.9 24.9-5.3 11 0.9 19.7 5.1 25.1 12.2 6.3 8.3 8.1 20.2 5.2 34.6z" fill="white"/>
    <path d="m607.6 541c33.8-40.6 52.4-90.7 52.4-142 0-62.8-26.8-121.7-75.4-166 -48.3-44-112.4-68.2-180.6-68.2s-132.3 24.2-180.6 68.2c-48.6 44.3-75.4 103.2-75.4 166s26.8 121.7 75.4 166c48.3 44 112.4 68.2 180.6 68.2 42.6 0 84.6-9.7 121.9-28.2l89.2 33.4c1.4 0.5 2.9 0.8 4.3 0.8 3 0 6-1.1 8.3-3.3 3.4-3.1 4.8-7.9 3.5-12.4l-23.6-82.6zm-78.2 39.1c-3.3-1.2-6.9-1-10 0.6 -34.9 18.3-74.9 27.9-115.4 27.9 -127.6 0-231.4-94-231.4-209.6s103.8-209.6 231.4-209.6 231.4 94 231.4 209.6c0 48.1-17.5 93.3-50.7 130.8 -2.8 3.1-3.8 7.5-2.6 11.5l18.7 65.5 -71.5-26.8z" fill="white"/>
</svg>
