<svg xmlns="http://www.w3.org/2000/svg" width="800" height="800">
    <title>Navigation</title>
    <circle r="400" cy="400" cx="400" style="fill:#FF745F"/>
    <path d="m606.8 187.3c0 0-0.1-0.1-0.1-0.1s-0.1-0.1-0.1-0.1c-8-7.9-19.4-10.3-29.9-6.2l-455.9 178.4c-12.1 4.7-19.1 16.5-17.6 29.4 1.5 12.9 11.2 22.6 24 24.4l222.9 30.1c0.4 0.1 0.8 0.4 0.8 0.8l30.1 222.9c1.7 12.8 11.5 22.5 24.4 24 1.2 0.1 2.3 0.2 3.5 0.2 11.5 0 21.6-6.8 25.9-17.8l178.2-456.1c4.1-10.5 1.7-21.9-6.2-29.9zm-476 199c-0.5-0.1-0.7-0.1-0.8-0.8 -0.1-0.7 0.1-0.8 0.6-1l426.7-166.9 -199.6 199.6c-1.3-0.4-226.9-30.9-226.9-30.9zm278.8 277.1c-0.2 0.5-0.3 0.7-1 0.6 -0.7-0.1-0.8-0.3-0.8-0.8 0 0-30.5-225.6-30.9-226.9l199.5-199.6 -166.8 426.7z" fill="white"/>
</svg>


