<svg xmlns="http://www.w3.org/2000/svg" width="340" height="300">
<style>
  .a{
    fill:#bae4e5;
  }
  .b{
    fill:#edde45;
  }
  .c{
    fill:#b2b2b2;
  }
  .d{
    fill:#ffebd8;
  }
</style>
    <title>
      LB
    </title>
    <rect height="60" width="140" x="100" class="a"/>
    <rect height="180" width="300" y="60" x="20" class="a"/>
    <rect height="40" width="220" y="20" x="60" class="a"/>
    <rect x="200" y="140" width="20" height="20" class="b"/>
    <rect height="220" width="260" y="40" x="40" class="a"/>
    <rect height="100" width="340" y="100" class="a"/>
    <rect x="80" y="160" width="40" height="40" class="c"/>
    <rect x="220" y="160" width="40" height="40" class="c"/>
    <rect x="100" y="200" width="40" height="20" class="c"/>
    <rect x="200" y="200" width="40" height="20" class="c"/>
    <rect x="100" y="220" width="140" height="80" class="c"/>
    <rect x="60" y="180" width="20" height="20" class="c"/>
    <rect x="260" y="180" width="20" height="20" class="c"/>
    <rect x="120" y="60" width="100" height="80" class="d"/>
    <rect x="200" y="140" width="20" height="20" class="b"/>
    <rect x="120" y="160" width="100" height="40" class="d"/>
    <rect x="120" y="140" width="80" height="20" class="d"/>
    <rect x="140" y="200" width="60" height="20" class="d"/>
    <rect x="60" y="200" width="40" height="80" class="d"/>
    <rect x="240" y="200" width="40" height="80" class="d"/>
    <rect x="240" y="280" width="20" height="20" class="d"/>
    <rect x="80" y="280" width="20" height="20" class="d"/>
    <rect x="100" y="40" width="40" height="40" class="b"/>
    <rect x="180" y="60" width="20" height="20" class="b"/>
    <rect x="120" y="20" width="100" height="40" class="b"/>
    <rect x="220" y="40" width="20" height="120" class="b"/>
    <rect x="100" y="60" width="20" height="100" class="b"/>
    <rect x="200" y="60" width="20" height="40" class="b"/>
    <rect x="120" y="140" width="20" height="20" class="b"/>
</svg>

