<svg xmlns="http://www.w3.org/2000/svg" width="800" height="800">
    <title>Social Follow</title>
    <circle r="400" cy="400" cx="400" fill="#FF745F"/>
    <circle cx="266.2" cy="498.6" r="17.3" fill="white"/>
    <path d="m657.6 405.3c0-8.5-2.6-16.4-7.1-22.9 10.6-7.3 17.5-19.5 17.5-33.4 0-22.4-18.2-40.6-40.6-40.6l-106.7 0 6.8-15.2c9.9-22.2 14.9-45.7 15-70 0 0 0.1-29.6 0.1-29.8 0-23-18.7-41.7-41.7-41.7 -17.1 0-32.3 10.2-38.7 26.1 -0.3 0.7-10 29.3-10 29.3 -8.8 25.4-24.3 48-44.9 65.2l-49.5 41.4 -28.6 0 0-13.1c0-13.7-11.2-24.9-24.9-24.9l-123.3 0c-13.7 0-24.9 11.2-24.9 24.9l0 242.5c0 13.7 11.2 24.9 24.9 24.9l123.3 0c13.7 0 24.9-11.2 24.9-24.9l0-19.5 15.6 0 15.5 7.5c36.7 17.7 77.6 27.1 118.4 27.1l56.7 0 17.3 0 43.6 0c22.4 0 40.6-18.2 40.6-40.6 0-8.5-2.6-16.4-7.1-22.9 10.6-7.3 17.5-19.5 17.5-33.4 0-8.5-2.6-16.4-7.1-22.9 10.6-7.3 17.5-19.5 17.5-33.4zm-353.4 138l-123.3 0 0-242.5 123.3 0 0 242.5c0 0 0 0 0 0zm323.2-178.6l-17.7 0c-6.9 0-12.4 5.6-12.4 12.4 0 6.9 5.6 12.4 12.4 12.4l7.3 0c8.7 0 15.7 7 15.7 15.7s-7 15.7-15.7 15.7l-17.7 0c-6.9 0-12.4 5.6-12.4 12.4s5.6 12.4 12.4 12.4l7.3 0c8.7 0 15.7 7 15.7 15.7 0 8.7-7 15.7-15.7 15.7l-17.7 0c-6.9 0-12.4 5.6-12.4 12.4s5.6 12.4 12.4 12.4l7.3 0c8.7 0 15.7 7 15.7 15.7 0 8.7-7 15.7-15.7 15.7l-43.6 0 -17.3 0 -56.7 0c-37 0-74.2-8.5-107.5-24.6l-18.1-8.7c-1.7-0.8-3.5-1.2-5.4-1.2l-18.5 0 0-160.2 33.1 0c2.9 0 5.7-1 8-2.9l53-44.3c24.1-20.2 42.2-46.5 52.5-76.2 0 0 9.9-28.8 10-29 2.8-5.9 8.6-9.6 15.2-9.6 9.3 0 16.8 7.5 16.8 16.8 0 0.2-0.1 29.7-0.1 29.7 0 20.8-4.4 40.9-12.8 59.9l-14.5 32.5c-1.3 2.8-1.4 5.9-0.5 8.7 0.1 0.2 2.8 9 11.9 9l125.7 0c8.7 0 15.7 7 15.7 15.7 0 8.7-7 15.7-15.7 15.7z" fill="white"/>
</svg>
